HIERARCHY
ROOT joint_Root
{
	OFFSET 0.0 0.0 0.0
	CHANNELS 6 Xposition Yposition Zposition Zrotation Xrotation Yrotation 
	JOINT Hips
	{
		OFFSET -0.726466 93.3139 -2.00062
		CHANNELS 6 Xposition Yposition Zposition Zrotation Xrotation Yrotation 
		JOINT Spine
		{
			OFFSET 15.7357 0.0 0.0
			CHANNELS 6 Xposition Yposition Zposition Zrotation Xrotation Yrotation 
			JOINT Chest
			{
				OFFSET 8.98455 -0.406207 0.0
				CHANNELS 6 Xposition Yposition Zposition Zrotation Xrotation Yrotation 
				JOINT Neck
				{
					OFFSET 16.3773 0.0 0.0
					CHANNELS 6 Xposition Yposition Zposition Zrotation Xrotation Yrotation 
					JOINT Head
					{
						OFFSET 6.45672 0.0 0.0
						CHANNELS 6 Xposition Yposition Zposition Zrotation Xrotation Yrotation 
						End Site
						{
							OFFSET 0.0 0.0 0.0
						}
					}
				}
				JOINT Shoulder_L
				{
					OFFSET 12.9942 -0.242716 4.98039
					CHANNELS 6 Xposition Yposition Zposition Zrotation Xrotation Yrotation 
					JOINT UpperArm_L
					{
						OFFSET 5.34809 0.0 0.0
						CHANNELS 6 Xposition Yposition Zposition Zrotation Xrotation Yrotation 
						JOINT LowerArm_L
						{
							OFFSET 24.3286 1.87007e-05 0.0
							CHANNELS 6 Xposition Yposition Zposition Zrotation Xrotation Yrotation 
							JOINT Hand_L
							{
								OFFSET 22.2916 0.0 0.0
								CHANNELS 6 Xposition Yposition Zposition Zrotation Xrotation Yrotation 
								End Site
								{
									OFFSET 0.0 0.0 0.0
								}
							}
						}
					}
				}
				JOINT Shoulder_R
				{
					OFFSET 12.9945 -0.242716 -4.98039
					CHANNELS 6 Xposition Yposition Zposition Zrotation Xrotation Yrotation 
					JOINT UpperArm_R
					{
						OFFSET -5.34813 0.0 0.0
						CHANNELS 6 Xposition Yposition Zposition Zrotation Xrotation Yrotation 
						JOINT LowerArm_R
						{
							OFFSET -24.3289 0.000322201 0.0
							CHANNELS 6 Xposition Yposition Zposition Zrotation Xrotation Yrotation 
							JOINT Hand_R
							{
								OFFSET -22.2915 -0.000108084 0.0
								CHANNELS 6 Xposition Yposition Zposition Zrotation Xrotation Yrotation 
								End Site
								{
									OFFSET 0.0 0.0 0.0
								}
							}
						}
					}
				}
			}
		}
		JOINT UpperLeg_L
		{
			OFFSET -2.19248 -6.46944 0.0
			CHANNELS 6 Xposition Yposition Zposition Zrotation Xrotation Yrotation 
			JOINT LowerLeg_L
			{
				OFFSET 39.0811 0.0 -1.23785e-05
				CHANNELS 6 Xposition Yposition Zposition Zrotation Xrotation Yrotation 
				JOINT Foot_L
				{
					OFFSET 40.9854 0.0 -1.26872e-05
					CHANNELS 6 Xposition Yposition Zposition Zrotation Xrotation Yrotation 
					JOINT Toes_L
					{
						OFFSET 11.7543 0.0 0.0
						CHANNELS 6 Xposition Yposition Zposition Zrotation Xrotation Yrotation 
						End Site
						{
							OFFSET 0.0 0.0 0.0
						}
					}
				}
			}
		}
		JOINT UpperLeg_R
		{
			OFFSET -2.19251 6.46944 0.0
			CHANNELS 6 Xposition Yposition Zposition Zrotation Xrotation Yrotation 
			JOINT LowerLeg_R
			{
				OFFSET -39.0811 -0.00228153 -0.0401928
				CHANNELS 6 Xposition Yposition Zposition Zrotation Xrotation Yrotation 
				JOINT Foot_R
				{
					OFFSET -40.9854 0.0 0.0
					CHANNELS 6 Xposition Yposition Zposition Zrotation Xrotation Yrotation 
					JOINT Toes_R
					{
						OFFSET -11.7543 0.0 0.0
						CHANNELS 6 Xposition Yposition Zposition Zrotation Xrotation Yrotation 
						End Site
						{
							OFFSET 0.0 0.0 0.0
						}
					}
				}
			}
		}
	}
}
MOTION
Frames:	5
Frame Time:	0.0333333
0.000000 0.000000 0.000000 0.000000 0.000000 -0.000000 -0.817564 92.248400 0.410850 87.971700 -1.553960 2.852680 15.735700 0.000005 -0.000001 87.456300 85.558100 -86.909600 8.984550 -0.406207 -0.000000 1.111250 -0.425847 1.096460 16.377300 -0.000001 -0.000001 4.448080 -2.574360 -0.223237 6.456720 -0.000001 -0.000000 3.251980 -1.894190 0.494779 12.994200 -0.242716 4.980390 -89.984800 -0.048373 -72.560400 5.348090 -0.000007 -0.000001 -67.473500 39.227100 -15.246500 24.328600 0.000019 0.000005 1.250850 2.882170 -23.471700 22.291600 -0.000001 0.000005 6.937180 5.478340 -5.685110 12.994500 -0.242716 -4.980390 87.589900 7.088190 -71.166500 -5.348130 -0.000001 -0.000004 -65.099100 39.587200 -14.952700 -24.328900 0.000322 -0.000009 1.429450 4.515370 -17.599100 -22.291500 -0.000108 -0.000004 9.268050 5.351710 -1.428720 -2.192480 -6.469440 -0.000000 -175.399000 -7.147680 -2.806110 39.081100 -0.000007 -0.000012 -0.113213 0.272175 22.585400 40.985400 -0.000006 -0.000013 -0.406316 3.068380 -67.050800 11.754300 -0.000000 0.000003 -0.000041 -0.000478 -16.596200 -2.192510 6.469440 -0.000001 179.707000 13.077000 179.423000 -39.081100 -0.002282 -0.040193 -0.064491 0.196218 19.065300 -40.985400 0.000008 0.000006 2.398820 8.288550 -65.974100 -11.754300 -0.000006 -0.000006 -0.006801 -0.077941 -19.745900
0.000000 0.000000 0.000000 0.000000 0.000000 -0.000000 -0.775560 92.236300 0.394782 88.003700 -1.627150 2.880490 15.735700 0.000005 -0.000001 87.600700 85.543600 -87.037400 8.984550 -0.406207 -0.000000 1.141150 -0.405515 1.129780 16.377300 -0.000001 -0.000001 4.442240 -2.578480 -0.218986 6.456720 -0.000001 -0.000000 3.206970 -1.850500 0.430871 12.994200 -0.242716 4.980390 -90.027700 0.087508 -72.443600 5.348090 -0.000007 -0.000001 -67.122300 38.539200 -15.577000 24.328600 0.000019 0.000005 1.780010 3.933770 -24.367400 22.291600 -0.000001 0.000005 6.164110 5.481840 -5.818530 12.994500 -0.242716 -4.980390 87.593500 7.057700 -71.117400 -5.348130 -0.000001 -0.000004 -65.128700 39.528300 -14.976300 -24.328900 0.000322 -0.000009 1.417310 4.475760 -17.603500 -22.291500 -0.000108 -0.000004 9.302120 5.354080 -1.500160 -2.192480 -6.469440 -0.000000 -175.455000 -7.148030 -2.819600 39.081100 -0.000007 -0.000012 -0.115568 0.276817 22.660000 40.985400 -0.000006 -0.000013 -0.391232 3.010530 -67.084300 11.754300 -0.000000 0.000003 -0.000036 -0.000424 -16.594100 -2.192510 6.469440 -0.000001 179.627000 13.038500 179.370000 -39.081100 -0.002282 -0.040193 -0.070043 0.210855 19.185000 -40.985400 0.000008 0.000006 2.239820 8.327330 -65.982900 -11.754300 -0.000006 -0.000006 -0.006742 -0.077430 -19.725000
0.000000 0.000000 0.000000 0.000000 0.000000 -0.000000 -0.745016 92.242600 0.377934 88.003700 -1.663680 2.956210 15.735700 0.000005 -0.000001 88.175600 85.534700 -87.593100 8.984550 -0.406207 -0.000000 1.161910 -0.317762 1.167190 16.377300 -0.000001 -0.000001 4.487840 -2.606230 -0.231822 6.456720 -0.000001 -0.000000 3.213640 -1.884450 0.378436 12.994200 -0.242716 4.980390 -90.104300 0.326981 -72.305900 5.348090 -0.000007 -0.000001 -66.032900 37.391900 -16.386700 24.328600 0.000019 0.000005 2.676050 5.402960 -26.396700 22.291600 -0.000001 0.000005 5.866180 5.472020 -5.446190 12.994500 -0.242716 -4.980390 87.617100 6.964400 -71.057700 -5.348130 -0.000001 -0.000004 -65.392200 39.390200 -14.743900 -24.328900 0.000322 -0.000009 1.413440 4.437850 -17.698800 -22.291500 -0.000108 -0.000004 9.293020 5.354490 -1.512610 -2.192480 -6.469440 -0.000000 -175.495000 -7.074660 -2.733370 39.081100 -0.000007 -0.000012 -0.112013 0.268723 22.628100 40.985400 -0.000006 -0.000013 -0.390876 2.867840 -67.065500 11.754300 -0.000000 0.000003 -0.000053 -0.000595 -16.600600 -2.192510 6.469440 -0.000001 179.601000 12.978700 179.447000 -39.081100 -0.002282 -0.040193 -0.067487 0.203805 19.159300 -40.985400 0.000008 0.000006 2.271690 8.316550 -65.962400 -11.754300 -0.000006 -0.000006 -0.006920 -0.078971 -19.787900
0.000000 0.000000 0.000000 0.000000 0.000000 -0.000000 -0.744619 92.234600 0.339799 88.001500 -1.556620 2.993230 15.735700 0.000005 -0.000001 88.590200 85.528700 -87.984600 8.984550 -0.406207 -0.000000 1.175520 -0.254744 1.212890 16.377300 -0.000001 -0.000001 4.527620 -2.656620 -0.274807 6.456720 -0.000001 -0.000000 3.265660 -1.933600 0.266523 12.994200 -0.242716 4.980390 -90.242000 0.754820 -72.226500 5.348090 -0.000007 -0.000001 -63.718400 35.670000 -18.034900 24.328600 0.000019 0.000005 3.446960 6.082800 -29.612800 22.291600 -0.000001 0.000005 5.855100 5.474790 -5.549870 12.994500 -0.242716 -4.980390 87.660700 6.840810 -71.069600 -5.348130 -0.000001 -0.000004 -65.624200 39.335600 -14.525700 -24.328900 0.000322 -0.000009 1.357610 4.237200 -17.796800 -22.291500 -0.000108 -0.000004 9.103910 5.349780 -1.370230 -2.192480 -6.469440 -0.000000 -175.482000 -7.023510 -2.793870 39.081100 -0.000007 -0.000012 -0.114452 0.273258 22.726100 40.985400 -0.000006 -0.000013 -0.374437 2.948590 -67.073100 11.754300 -0.000000 0.000003 -0.000039 -0.000451 -16.595100 -2.192510 6.469440 -0.000001 179.582000 13.074900 179.429000 -39.081100 -0.002282 -0.040193 -0.070438 0.211494 19.226800 -40.985400 0.000008 0.000006 2.181120 8.312420 -65.957000 -11.754300 -0.000006 -0.000006 -0.007255 -0.081835 -19.904800
0.000000 0.000000 0.000000 0.000000 0.000000 -0.000000 -0.749454 92.247700 0.278887 88.043900 -1.323520 3.061570 15.735700 0.000005 -0.000001 89.108200 85.524500 -88.500500 8.984550 -0.406207 -0.000000 1.185120 -0.174136 1.216260 16.377300 -0.000001 -0.000001 4.589180 -2.665110 -0.349337 6.456720 -0.000001 -0.000000 3.357890 -2.015240 0.167647 12.994200 -0.242716 4.980390 -90.322500 1.004870 -72.206100 5.348090 -0.000007 -0.000001 -60.993200 33.011900 -20.321800 24.328600 0.000019 0.000005 3.861300 5.845910 -33.530200 22.291600 -0.000001 0.000005 6.971870 5.496050 -6.372180 12.994500 -0.242716 -4.980390 87.689300 6.754890 -71.065300 -5.348130 -0.000001 -0.000004 -65.769700 39.472100 -14.316300 -24.328900 0.000322 -0.000009 1.369410 4.298340 -17.702800 -22.291500 -0.000108 -0.000004 9.035660 5.349810 -1.371530 -2.192480 -6.469440 -0.000000 -175.489000 -7.094210 -2.761700 39.081100 -0.000007 -0.000012 -0.114451 0.274222 22.654000 40.985400 -0.000006 -0.000013 -0.320188 3.229530 -66.975900 11.754300 -0.000000 0.000003 -0.000042 -0.000490 -16.596600 -2.192510 6.469440 -0.000001 179.542000 13.213600 179.483000 -39.081100 -0.002282 -0.040193 -0.068794 0.207085 19.200600 -40.985400 0.000008 0.000006 2.226450 8.236330 -65.926500 -11.754300 -0.000006 -0.000006 -0.006880 -0.078625 -19.773800
